<?xml version="1.0" encoding="utf-8"?>
<!-- Generator: Adobe Illustrator 26.5.0, SVG Export Plug-In . SVG Version: 6.00 Build 0)  -->
<svg version="1.2" baseProfile="tiny" id="Layer_1" xmlns="http://www.w3.org/2000/svg" xmlns:xlink="http://www.w3.org/1999/xlink"
	 x="0px" y="0px" viewBox="0 0 214.95 120.1" overflow="visible" xml:space="preserve">
<text transform="matrix(1 0 0 1 -3.1065 116.0167)" fill="#1E1E2D" font-family="'Lato-Black'" font-size="99.7px">B</text>
<text transform="matrix(1 0 0 1 63.6421 116.0167)" fill="#1E1E2D" font-family="'Lato-Black'" font-size="99.7px">O</text>
<text transform="matrix(1 0 0 1 142.3056 116.0167)" fill="#1E1E2D" font-family="'Lato-Black'" font-size="99.7px">X</text>
<text transform="matrix(1 0 0 1 1.8935 32.346)" fill="#010101" font-family="'Lato-Medium'" font-size="40px">C</text>
<text transform="matrix(1 0 0 1 27.9932 32.346)" fill="#010101" font-family="'Lato-Medium'" font-size="40px">O</text>
<text transform="matrix(1 0 0 1 60.0928 32.346)" fill="#010101" font-family="'Lato-Medium'" font-size="40px">M</text>
<text transform="matrix(1 0 0 1 97.3926 32.346)" fill="#010101" font-family="'Lato-Medium'" font-size="40px">M</text>
<text transform="matrix(1 0 0 1 134.6924 32.346)" fill="#010101" font-family="'Lato-Medium'" font-size="40px">E</text>
<text transform="matrix(1 0 0 1 157.7725 32.346)" fill="#010101" font-family="'Lato-Medium'" font-size="40px">N</text>
<text transform="matrix(1 0 0 1 188.3921 32.346)" fill="#010101" font-family="'Lato-Medium'" font-size="40px">T</text>
</svg>
