<?xml version="1.0" encoding="utf-8"?>
<!-- Generator: Adobe Illustrator 26.5.0, SVG Export Plug-In . SVG Version: 6.00 Build 0)  -->
<svg version="1.2" baseProfile="tiny" id="comment_x5F_box_xA0_Image_00000093161004687933964220000014489395267606541729_"
	 xmlns="http://www.w3.org/2000/svg" xmlns:xlink="http://www.w3.org/1999/xlink" x="0px" y="0px" viewBox="0 0 486.01 537.43"
	 overflow="visible" xml:space="preserve">
<g>
	<path fill="#FEFEFE" d="M23.07,464.98c0-142.26,0-284.52-0.03-426.77c0-1.02,0.26-1.14,1.19-1.14c145.61,0.02,291.22,0.02,436.82,0
		c0.93,0,1.19,0.13,1.19,1.14c-0.03,142.42-0.03,284.84-0.03,427.25c-0.28,0.01-0.4-0.18-0.56-0.38c-1.01-1.28-2.31-2.13-3.79-2.81
		c-3.61-1.66-7.42-2.62-11.25-3.52c-5.06-1.18-10.18-2.07-15.32-2.86c-2.54-0.39-5.08-0.88-7.66-1c0.01-0.24-0.01-0.48,0.04-0.71
		c0.93-5.1,2.06-10.16,3.43-15.16c2.58-9.41,6.16-18.45,10.3-27.27c4.25-9.05,5.75-18.42,3.99-28.32
		c-1.5-8.41-3.31-16.75-4.97-25.12c-2.45-12.38-4.85-24.76-5.16-37.43c-0.01-0.32,0.15-0.77-0.43-0.8c0.38-1.87,0.76-3.75,1.14-5.62
		c0.03-0.42,0.28-0.71,0.55-1.02c0.66-0.74,1.27-1.52,1.9-2.28c0.72,0.03,1.43,0.06,2.15,0.1c2.81,0.12,4.81-1.17,5.75-3.76
		c1.28-3.48,3.2-6.56,5.25-9.6c1.73-2.57,2.83-5.34,2.39-8.53c0.1-0.34,0.23-0.68,0.29-1.03c0.34-1.89-0.18-3.64-0.88-5.35
		c-1.16-2.84-2.11-5.75-2.77-8.76c-1.15-5.18-1.74-10.46-3.04-15.61c-2.15-8.54-6.35-15.37-15.09-18.53
		c-1.42-0.51-2.32-1.62-3.22-2.75c2.48-6.15,3.67-12.58,4.16-19.16c0.33-2.63,0.25-5.25-0.3-7.85c-1.39-6.57-7.47-11.58-14.32-11.8
		c-6.39-0.21-12.55,4.39-14.35,10.7c-0.13,0.45-0.21,0.91-0.54,1.27c-0.53-7.83-2.2-15.43-5.39-22.6
		c-9.92-22.27-26.73-36.34-50.5-42c-6.34-1.51-12.8-1.75-19.29-1.66c0.22-0.12,0.44-0.24,0.79-0.43c-4.17-1.38-6.38-4.32-7.28-8.39
		c-0.14-0.61-0.41-1.21-0.82-1.71c0.62-1.78,1.04-3.57,0.58-5.46c2.28-1.66,3.57-3.89,3.99-6.69c0.35-2.33,0.07-4.63-0.17-6.92
		c-0.82-8.02-1.81-16.02-2.52-24.05c-0.56-6.41-3.06-11.49-8.83-14.7c-4.99-2.78-10.1-5.29-15.45-7.3c0.35-1.15,0.7-2.31,1.07-3.46
		c0.2-0.61,0.01-1.35,0.62-1.82c1.45-4.03,2.53-8.16,2.35-12.47c-0.28-6.64-3.61-11.05-9.47-12.73c-2.01-0.58-4.07-0.81-6.15-0.73
		c-3.27,0.13-6.19,1.11-8.45,3.6c-4.07,4.48-5.51,9.71-4.28,15.61c0.46,2.19,0.91,4.49,2.98,5.91c0.09,1.87,1.19,3.38,1.79,5.06
		c-4.26,2.83-8.72,5.28-13.43,7.29c-1.13,0.48-2.21,1.11-3.28,1.73c-3.77,2.17-6.54,5.19-7.84,9.42c-0.9,2.92-1.19,5.93-1.45,8.95
		c-0.46,5.33-0.94,10.65-1.34,15.98c-0.29,3.82-0.84,7.62-0.78,11.46c0.04,2.73,0.56,5.33,2.56,7.38c0.46,0.48,0.28,0.93,0.12,1.43
		c-1.41,4.31-3.54,8.27-5.96,12.09c-0.23,0.36-0.57,0.66-0.87,0.98c-0.24-0.01-0.48-0.03-0.72-0.03c-28.81,0-57.63,0-86.44,0
		c-4.69,0-9.32,0.5-13.92,1.4c-32.73,6.44-57.08,35.6-57.15,68.95c-0.12,57.87-0.04,115.74-0.04,173.61c0,3.2,0.23,6.38,0.68,9.55
		c2.16,15.4,8.7,28.67,19.43,39.9c4.36,4.56,9.34,8.34,14.67,11.69c-0.14,0.07-0.27,0.21-0.41,0.21c-3.86,0.13-7.7,0.46-11.54,0.74
		c-2.66,0.2-5.32,0.29-7.97,0.52c-5.02,0.43-10.04,0.93-15.06,1.4c-4.35,0.41-8.7,0.74-13.04,1.25c-5.28,0.62-10.54,1.39-15.8,2.11
		c-6.65,0.9-13.25,2.08-19.77,3.69c-3.59,0.89-7.13,1.93-10.43,3.7C24.7,463.55,24.2,464.67,23.07,464.98z"/>
	<path fill="#D8D8D8" d="M23.07,464.98c1.13-0.31,1.64-1.43,2.64-1.97c3.3-1.77,6.84-2.81,10.43-3.7
		c6.52-1.61,13.12-2.79,19.77-3.69c5.27-0.72,10.52-1.49,15.8-2.11c4.34-0.51,8.69-0.84,13.04-1.25c5.02-0.47,10.03-0.97,15.06-1.4
		c2.65-0.23,5.32-0.32,7.97-0.52c3.85-0.29,7.69-0.61,11.54-0.74c0.14,0,0.27-0.14,0.41-0.21c0.25,0.12,0.5,0.24,0.74,0.37
		c2.78,1.56,5.58,3.08,8.59,4.17c1.15,4.09,3.4,7.4,6.74,10.04c3.14,2.49,6.79,3.99,10.41,5.55c2.56,1.1,5.2,2.02,7.58,3.5
		c-2.8,0.09-5.58,0.36-8.23,1.3c-3.31,1.17-6.07,3.04-7.56,6.37c-1.52,3.38-0.15,5.95,3.45,6.65c0.71,0.14,1.42,0.16,2.14,0.23
		c6.73,0.69,13.46,0.69,20.19-0.08c0.75,0.31,1.55,0.46,2.33,0.4c4.04-0.34,8.08-0.73,12.12-1.11c1.79,0.54,3.56,1.16,5.37,1.59
		c4.01,0.95,8.04,1.52,12.11,0.32c2.41,0.33,4.83,0.43,7.26,0.55c3.14,0.15,6.27,0.39,9.41,0.63c1.8,0.13,3.28-0.64,4.11-2.28
		c1.11-2.18,1.26-4.5,0.84-6.86c-0.67-3.78-3-7.8-7.5-8.11c2.12-1.07,4.27-1.56,6.45-0.19c0.35,0.22,0.6,0.09,0.88-0.05
		c6.35-3.18,12.58-6.49,16.26-13.01c0.28,0.01,0.56,0.03,0.84,0.03c31.56,0,63.11,0.01,94.67-0.01c4.39,0,8.76-0.42,13.09-1.24
		c8.28-1.56,16.01-4.54,23.27-8.78c0.16,0.22,0.39,0.24,0.63,0.26c3.01,0.16,6.02,0.25,9.02,0.53c1.35,0.12,2.69,0.15,4.04,0.25
		c2.92,0.22,5.84,0.44,8.76,0.66c0.98,5.7,2.26,11.32,3.96,16.85c0.23,0.75,0.65,1.47,0.53,2.3c-1.55,2.68-2.3,5.57-2.37,8.65
		c-0.19,1.99-0.19,1.99,1.6,2.72c4.89,1.99,9.95,3.22,15.2,3.81c6.33,0.71,12.56,0.29,18.77-1.01c1.34-0.28,1.54-0.57,1.3-1.91
		c0.05-0.9-0.45-1.6-0.87-2.33c0.79,0.06,1.59,0.14,2.38,0.16c6.42,0.15,12.77-0.42,19.03-1.89c1.58-0.37,1.75-0.64,1.23-2.18
		c-0.85-2.87-3.09-4.01-5.76-4.51c-1.92-0.36-3.88-0.46-5.79-0.83c-3.52-0.68-6.58-2.33-9.22-4.76c-1.58-1.45-3.29-2.43-5.51-1.46
		c0.38-3.27,0.69-6.55,1.41-9.78c2.58,0.12,5.12,0.61,7.66,1c5.13,0.79,10.26,1.67,15.32,2.86c3.83,0.9,7.65,1.87,11.25,3.52
		c1.48,0.68,2.78,1.53,3.79,2.81c0.15,0.2,0.28,0.39,0.56,0.38c0,0.48,0,0.96,0,1.44c-0.11,0.03-0.28,0.02-0.33,0.1
		c-1.34,1.89-3.31,2.83-5.38,3.61c-1.79,0.68-3.61,1.29-5.53,1.97c0.32,0.26,0.5,0.41,0.68,0.55c2.28,1.88,2.66,4.18,0.47,6.18
		c-2.1,1.92-4.62,2.98-7.23,3.85c-9.28,3.13-18.94,4.04-28.64,4.54c-3.28,0.17-6.6,0.14-9.9,0.11c-6.38-0.05-12.72-0.41-19.05-1.22
		c-5.93-0.76-11.78-1.83-17.4-3.96c-0.35-0.13-0.71-0.2-1.05-0.11c-1.68,0.44-3.41,0.25-5.11,0.38c-4.16,0.32-8.34,0.53-12.51,0.75
		c-5.05,0.26-10.1,0.5-15.15,0.72c-3.94,0.17-7.88,0.35-11.82,0.48c-4.82,0.16-9.64,0.25-14.46,0.5c-2.91,0.15-5.81-0.02-8.73,0.21
		c-3.37,0.27-6.77,0.02-10.17,0.24c-4.46,0.29-8.93,0.1-13.4,0.22c-8.94,0.23-17.89,0.03-26.83,0.27c-1.71,0.05-3.28,0.24-4.81,1.08
		c-1.21,0.67-2.55,1.13-3.88,1.56c-7.51,2.47-15.26,3.81-23.07,4.79c-5.99,0.75-12.01,1.36-18.06,1.49
		c-0.35,0.01-0.76-0.06-0.81,0.47c-10.07,0-20.15,0-30.22,0c-0.05-0.53-0.46-0.47-0.81-0.47c-2.43-0.01-4.84-0.29-7.26-0.46
		c-5.07-0.35-10.11-0.96-15.15-1.69c-6.9-1-13.72-2.34-20.28-4.76c-3.14-1.16-6.29-2.38-8.4-5.24c-0.22-0.3-0.51-0.32-0.84-0.36
		c-2.33-0.29-4.68-0.33-7.02-0.49c-4.75-0.34-9.5-0.77-14.25-1.16c-3.17-0.26-6.34-0.44-9.51-0.76c-5.05-0.5-10.1-1.13-15.15-1.63
		c-5.3-0.52-10.57-1.22-15.83-2c-7.27-1.07-14.52-2.31-21.6-4.3c-3.03-0.85-6.04-1.79-8.74-3.51c-0.7-0.45-1.05-1.33-1.96-1.49
		C23.07,466.58,23.07,465.78,23.07,464.98z"/>
	<path fill="#FEFEFE" d="M200.07,495.68c0.05-0.53,0.46-0.46,0.81-0.47c6.05-0.13,12.06-0.74,18.06-1.49
		c7.81-0.98,15.57-2.32,23.07-4.79c1.32-0.44,2.66-0.9,3.88-1.56c1.53-0.84,3.1-1.04,4.81-1.08c8.94-0.24,17.89-0.04,26.83-0.27
		c4.47-0.12,8.95,0.07,13.4-0.22c3.39-0.22,6.79,0.03,10.17-0.24c2.91-0.23,5.82-0.06,8.73-0.21c4.82-0.25,9.64-0.35,14.46-0.5
		c3.94-0.13,7.88-0.31,11.82-0.48c5.05-0.22,10.1-0.45,15.15-0.72c4.17-0.22,8.35-0.42,12.51-0.75c1.7-0.13,3.43,0.06,5.11-0.38
		c0.34-0.09,0.7-0.02,1.05,0.11c5.61,2.13,11.46,3.2,17.4,3.96c6.33,0.81,12.67,1.17,19.05,1.22c3.3,0.03,6.61,0.06,9.9-0.11
		c9.69-0.5,19.35-1.41,28.64-4.54c2.6-0.88,5.13-1.93,7.23-3.85c2.19-2,1.81-4.31-0.47-6.18c-0.18-0.15-0.37-0.3-0.68-0.55
		c1.92-0.68,3.74-1.3,5.53-1.97c2.07-0.78,4.05-1.72,5.38-3.61c0.05-0.07,0.22-0.07,0.33-0.1c0,9.23-0.01,18.47,0.02,27.7
		c0,0.9-0.2,1.1-1.1,1.1C374.11,495.68,287.09,495.68,200.07,495.68z"/>
	<path fill="#FEFEFE" d="M23.07,467.38c0.91,0.16,1.26,1.04,1.96,1.49c2.7,1.73,5.71,2.66,8.74,3.51c7.09,1.99,14.33,3.23,21.6,4.3
		c5.26,0.77,10.53,1.48,15.83,2c5.06,0.49,10.1,1.12,15.15,1.63c3.16,0.31,6.34,0.5,9.51,0.76c4.75,0.38,9.5,0.82,14.25,1.16
		c2.34,0.17,4.69,0.21,7.02,0.49c0.33,0.04,0.62,0.07,0.84,0.36c2.1,2.85,5.26,4.08,8.4,5.24c6.56,2.42,13.38,3.76,20.28,4.76
		c5.03,0.73,10.07,1.34,15.15,1.69c2.42,0.17,4.83,0.45,7.26,0.46c0.35,0,0.76-0.06,0.81,0.47c-48.93,0-97.85,0-146.78,0
		C23.07,486.24,23.07,476.81,23.07,467.38z"/>
	<path fill="#0095EF" d="M129.06,453.93c-3.01-1.09-5.81-2.62-8.59-4.17c-0.24-0.13-0.49-0.25-0.74-0.37
		c-5.33-3.35-10.31-7.13-14.67-11.69c-10.73-11.22-17.27-24.49-19.43-39.9c-0.44-3.17-0.68-6.35-0.68-9.55
		c0-57.87-0.09-115.74,0.04-173.61c0.07-33.35,24.42-62.51,57.15-68.95c4.6-0.9,9.23-1.4,13.92-1.4c28.81,0,57.63,0,86.44,0
		c0.24,0,0.48,0.02,0.72,0.03c0.21,0.24,0.5,0.2,0.78,0.21c4.49,0.09,8.98,0.17,13.47,0.26c-0.23,1.13-0.57,2.22-0.41,3.41
		c0.32,2.3,1.44,4.23,2.88,5.96c5.17,6.19,10.58,12.16,15.93,18.19c0.56,0.78,1.17,1.53,1.89,2.18c0.13,0.44-0.14,0.76-0.34,1.1
		c-1.03,1.8-2.06,3.59-3.07,5.4c-2.21,3.93-3.65,8.05-2.95,12.66c-1.67,1.39-3.33,2.8-4.7,4.51c-0.75,0.93-1.21,1.87-0.3,2.95
		c-0.45,1.81,0.28,3.19,1.64,4.31c0.78,0.65,1.68,1.09,2.64,1.38c3.78,1.12,7.57,2.23,11.37,3.27c1.38,0.38,2.83,0.54,4.26,0.13
		c0.63-0.18,1.22-0.41,1.38-1.16c1.7-0.2,2.49-1.33,1.9-3.02c-0.65-1.87-1.48-3.67-2.23-5.5c-0.18-0.43-0.46-0.85-0.25-1.35
		c0.45-0.1,0.77-0.41,1.1-0.69c1.84-1.52,3.2-3.42,4.4-5.47c0.18-0.32,0.22-0.81,0.77-0.78c0.49,0.56,0.97,1.11,1.46,1.67
		c1.39,1.49,2.52,3.24,4.25,4.4c-0.1,0.42-0.16,0.85-0.29,1.26c-0.93,3.02-1.35,6.09-1.02,9.24c0.07,1.25,0.64,1.77,1.8,1.55
		c0.54-0.1,1.07-0.3,1.6-0.48c2.08-0.68,4.07-1.76,6.24-2.03c3.93-0.48,7.37-2.2,10.85-3.87c3.63-0.78,5.21-3.43,4.08-6.93
		c-0.6-1.84-1.8-3.29-3.25-4.52c-2.34-1.99-4.45-4.24-6.7-6.33c-0.03-1.49-0.66-2.78-1.42-3.99c-1.69-2.7-3.69-5.16-5.83-7.52
		c-0.56-0.78-1.16-1.53-1.91-2.15c-0.01-0.51,0.31-0.9,0.53-1.31c3.27-6.47,6.57-12.93,9.84-19.41c1.19-2.36,2.11-4.82,2.11-7.52
		c3.01,0.28,6.03,0.33,9.04-0.06c6.48-0.09,12.95,0.15,19.29,1.66c23.76,5.66,40.58,19.73,50.5,42c3.19,7.17,4.86,14.76,5.39,22.6
		c0.05,0.15,0.17,0.3,0.15,0.43c-0.29,2.73-0.46,5.48-0.42,8.23c-0.39,2.49-0.54,4.96,0.51,7.35c0,2.31-0.01,4.61-0.01,6.92
		c-0.14,0.45-0.38,0.84-0.71,1.18c-0.34,0.12-0.69,0.2-1.01,0.35c-5.22,2.4-10.33,5.05-15.4,7.73c-2.77,1.47-5.75,2.64-8.02,4.93
		c-0.11,0.11-0.27,0.19-0.42,0.22c-1.87,0.29-2.97,1.61-4.02,2.98c-2.56,3.34-3.92,7.2-4.73,11.26c-1.47,7.37-1.56,14.89-2.14,22.35
		c-0.35,4.41-0.75,8.82-0.82,13.25c-0.05,3.13,0.13,6.23,1.41,9.13c1.04,2.37,2.4,4.52,4.88,5.67c0.17,0.16,0.37,0.3,0.5,0.49
		c1.84,2.66,3.93,5.12,5.9,7.67c2.76,3.55,5.52,7.1,8.28,10.66c-0.22,4.4-0.09,8.78,0.35,13.16c0.51,5.14,1.75,10.14,2.71,15.19
		c1.37,7.18,2.31,14.42,2.83,21.71c0.37,5.14,0.36,10.29-0.11,15.44c-0.48,5.17-1.26,10.3-1.99,15.43
		c-0.87,6.06-1.35,12.14-1.47,18.26c-5.78,7.57-12.69,13.89-20.85,18.82c-7.26,4.24-15,7.22-23.27,8.78
		c-4.33,0.82-8.7,1.23-13.09,1.24c-31.56,0.03-63.11,0.01-94.67,0.01c-0.28,0-0.56-0.02-0.84-0.03c0.19-0.52,0.37-1.04,0.55-1.56
		c1.29-3.67,1.43-7.29-0.57-10.79c-0.71-1.25-1.73-2.26-2.63-3.36c1.65-0.58,3.32-1.11,4.95-1.75c2.61-1.02,3.18-2.16,2.56-4.91
		c-0.57-2.54-1.89-4.71-3.35-6.81c-1.23-1.78-2.87-3.2-4.32-4.78c-0.07-0.14-0.11-0.3-0.32-0.27l0.03-0.01
		c-0.09-0.22-0.14-0.45-0.27-0.64c-3.72-5.67-7.56-11.26-11.7-16.65c-2.5-3.25-5.45-5.78-9.41-7.06c-3.94-1.27-7.86-2.63-11.79-3.95
		c-0.3-0.1-0.59-0.26-0.92-0.12c-0.46-0.23-0.91-0.51-1.4-0.67c-0.86-0.29-0.95-0.71-0.63-1.56c0.97-2.52,1.83-5.08,2.7-7.64
		c0.3-0.9,0.51-1.84,0.06-2.78c-0.45-3.28-0.44-6.6-0.78-9.89c-0.5-4.7-2.85-7.21-7.44-8.34c-3.62-0.89-7.2-0.58-10.8-0.02
		c-2.55,0.39-4.42,1.8-5.39,4.08c-1.93,4.53-3.64,9.16-1.99,14.22c-0.29,2.45,0.09,4.75,1.33,6.91c0.79,1.38,1.59,2.76,1.82,4.38
		c-0.7,0.14-1.41,0.26-2.1,0.42c-12.19,2.84-22.18,9.39-30.79,18.25c-0.41,0.42-0.87,0.83-1.01,1.45l0.03,0
		c-0.16-0.01-0.22,0.09-0.25,0.22c-4.45,2.23-8.57,4.95-12.26,8.28c-5.55,5.02-5.65,10.21-0.46,15.63c1.14,1.19,2.49,2.11,3.69,3.21
		C128.42,446.33,128.16,450.05,129.06,453.93z"/>
	<path fill="#AC4D32" d="M386.15,430.54c0.12-6.11,0.6-12.2,1.47-18.26c0.74-5.13,1.52-10.26,1.99-15.43
		c0.47-5.15,0.48-10.3,0.11-15.44c-0.53-7.29-1.46-14.54-2.83-21.71c-0.97-5.05-2.2-10.05-2.71-15.19
		c-0.44-4.38-0.57-8.76-0.35-13.16c1.99,2.49,3.97,4.98,5.97,7.47c1.4,1.74,2.78,3.5,4.72,4.71c0.56,0.35,1.06,0.45,1.69,0.23
		c5.08-1.81,9.27-7.92,9.17-13.32c-0.01-0.67-0.26-1-0.83-1.27c-2.23-1.05-4.61-1.5-7.02-1.85c-2.06-0.29-4.14-0.55-5.76-2.05
		c-2.05-1.9-4.05-3.85-5.64-6.17c0.49-1.26,1.06-2.46,2.21-3.28c1.12,0.11,1.95,0.89,2.94,1.3c9.29,3.78,18.83,6.28,28.99,5.38
		c3.62-0.32,7.17-1.02,10.56-2.4c0.58,0.03,0.42,0.48,0.43,0.8c0.31,12.67,2.71,25.05,5.16,37.43c1.66,8.37,3.47,16.71,4.97,25.12
		c1.76,9.9,0.26,19.27-3.99,28.32c-4.14,8.81-7.72,17.85-10.3,27.27c-1.37,5-2.51,10.06-3.43,15.16c-0.04,0.23-0.02,0.48-0.04,0.71
		c-0.72,3.22-1.03,6.51-1.41,9.78c0.04,0.85-0.62,0.91-1.2,1.01c-1.95,0.36-3.91,0.68-5.86,1.04c-7.11,1.32-14.22,2.65-21.33,3.98
		c-0.63,0.12-1.19,0.08-1.6-0.49c0.12-0.84-0.3-1.55-0.53-2.3c-1.7-5.53-2.97-11.16-3.96-16.85c-0.29-2.26-0.59-4.51-0.85-6.77
		C386.37,439.72,386.21,435.13,386.15,430.54z M405.89,455.3c0.24-3.58,0.68-7.1,1.16-10.63c0.74-5.39,1.73-10.75,3.17-15.99
		c2.59-9.4,5.97-18.52,10.44-27.21c0.66-1.29,1.94-2.51,1.83-3.9c-0.11-1.41-1.11-2.75-1.73-4.11c-3.1-6.73-6.21-13.46-9.35-20.27
		c-0.1,0.4-0.2,0.74-0.26,1.09c-2.44,13.02-4.89,26.03-7.32,39.05c-0.88,4.72-1.76,9.46-2.01,14.25c-0.3,5.8,0.19,11.56,1.42,17.25
		C403.99,448.36,404.72,451.89,405.89,455.3z"/>
	<path fill="#314A72" d="M430.83,320.09c-3.39,1.38-6.94,2.08-10.56,2.4c-10.16,0.9-19.69-1.61-28.99-5.38
		c-0.99-0.4-1.82-1.18-2.94-1.3c-0.25-0.26-0.21-0.59-0.23-0.9c-0.24-4.09-0.51-8.19-0.7-12.29c-0.22-4.77-1.02-9.41-2.69-13.89
		c-1.02-2.73-2.19-5.39-3.48-8.16c-0.14,0.31-0.23,0.44-0.27,0.59c-1.16,4.59-2.31,9.18-3.46,13.78c-0.27,1.08-0.44,2.17-0.21,3.3
		c0.35,1.71,1.33,3.15,2,4.72c0.45,1.05,0.97,2.12,0.4,3.3c-0.58-1.04-1.12-2.09-1.96-2.97c-2.08-2.18-4.09-2.48-7.02-0.98
		c-2.57,1.32-3.59,3.46-3.08,6.22c0.26,1.43,1.09,2.63,1.5,3.99c-2.48-1.15-3.84-3.3-4.88-5.67c-1.28-2.9-1.46-6-1.41-9.13
		c0.08-4.43,0.47-8.84,0.82-13.25c0.59-7.46,0.67-14.98,2.14-22.35c0.81-4.07,2.17-7.92,4.73-11.26c1.05-1.37,2.15-2.7,4.02-2.98
		c0.15-0.02,0.31-0.11,0.42-0.22c2.28-2.29,5.25-3.47,8.02-4.93c5.08-2.69,10.18-5.33,15.4-7.73c0.32-0.15,0.68-0.23,1.01-0.35
		c-0.75,1.45-1.88,2.57-3.08,3.62c-0.34,0.3-0.53,0.51-0.3,0.99c1.74,3.55,3.46,7.11,6.15,10.07c1.8,1.97,3.8,3.62,6.54,4.16
		c0.87,0.17,1.56,0.01,2.22-0.52c2.49-1.99,4.54-4.36,6.01-7.2c1.79,0.27,3.14-0.47,4.26-1.81c0.97-1.16,1.8-2.41,2.5-3.74
		c0.41-0.78,1.13-1.46,0.91-2.48l0.07,0.04c0.25,0.04,0.3-0.12,0.32-0.31c0.06-0.05,0.12-0.08,0.2-0.09
		c0.89,1.13,1.79,2.24,3.22,2.75c8.74,3.16,12.94,9.99,15.09,18.53c1.3,5.15,1.89,10.43,3.04,15.61c0.67,3.01,1.61,5.91,2.77,8.76
		c0.7,1.71,1.23,3.47,0.88,5.35c-0.06,0.35-0.19,0.68-0.29,1.03c-0.08-0.18-0.17-0.35-0.24-0.53c-0.91-2.53-2.65-3.75-5.32-3.78
		c-1.18-0.02-2.27,0.37-3.4,0.58c-1.14-1.82-1.83-3.86-2.78-5.78c-0.66-1.32-1.28-2.65-1.92-3.98c-0.22,0.31-0.22,0.55-0.22,0.78
		c0.09,4.1-0.13,8.18-0.91,12.22c-0.15,0.76-0.67,1.59-0.08,2.41c-0.43,1.59-0.95,3.16-0.93,4.83c-1.11,1.46-2.2,2.93-3.32,4.37
		c-3.21,4.11-6.42,8.22-9.63,12.33c-0.19,0.24-0.54,0.47-0.45,0.79c0.11,0.39,0.55,0.21,0.83,0.24c2.72,0.34,5.46,0.62,8.17,1
		c0.82,0.12,1.55,0.15,2.21-0.41C431.58,316.35,431.2,318.22,430.83,320.09z"/>
	<path fill="#3C8F93" d="M295.02,68.63c5.35,2.01,10.46,4.52,15.45,7.3c5.77,3.21,8.27,8.29,8.83,14.7
		c0.7,8.03,1.69,16.03,2.52,24.05c0.24,2.3,0.51,4.59,0.17,6.92c-0.42,2.8-1.71,5.02-3.99,6.69c-0.79-2-2.13-3.43-4.23-4.07
		c-1.16-0.35-2.36-0.35-3.56-0.33c-0.02-4.39-0.14-8.79-0.01-13.18c0.07-2.51-1.45-4.7-4.64-4.62c-5.19,0.14-10.38,0.01-15.58-0.01
		c0.41-3.18,0.81-6.37,1.23-9.55c0.45-3.42,0.98-6.83,1.36-10.25c0.4-3.62,1.17-7.23,0.46-10.89c0.23-1.21,0.55-2.42,0.28-3.66
		c-0.06-0.3,0.06-0.54,0.22-0.78C294.03,70.17,294.52,69.4,295.02,68.63z"/>
	<path fill="#3C8F93" d="M257.46,144.79c-4.49-0.09-8.98-0.17-13.47-0.26c-0.28-0.01-0.56,0.03-0.78-0.21
		c0.29-0.33,0.63-0.62,0.87-0.98c2.41-3.82,4.55-7.77,5.96-12.09c0.16-0.5,0.34-0.96-0.12-1.43c-2-2.06-2.52-4.66-2.56-7.38
		c-0.06-3.84,0.49-7.64,0.78-11.46c0.4-5.33,0.89-10.65,1.34-15.98c0.26-3.02,0.55-6.03,1.45-8.95c1.3-4.24,4.07-7.25,7.84-9.42
		c1.07-0.62,2.14-1.25,3.28-1.73c4.71-2.01,9.17-4.47,13.43-7.29c0.38,0.78,1.35,1.38,1.03,2.36c-0.27,0.8-0.39,1.59-0.47,2.4
		c-1.56,2.06-2.21,4.47-2.56,6.97c-0.61,4.42-0.68,8.87-1.01,13.31c-0.11,1.51-0.16,3.02-0.27,4.52c-0.21,2.97-0.7,5.92-0.62,8.91
		c-5.23,0.02-10.46,0.02-15.69,0.06c-2.24,0.02-3.83,1.51-3.84,3.72c-0.03,9.59-0.03,19.17,0,28.76c0.01,2.21,1.61,3.71,3.82,3.76
		c1.16,0.03,2.31,0.03,3.47,0.05C258.59,143.12,258.05,143.97,257.46,144.79z"/>
	<path fill="#5E4540" d="M424.65,237.73c0.22,1.02-0.5,1.69-0.91,2.48c-0.7,1.33-1.54,2.58-2.5,3.74c-1.12,1.35-2.47,2.08-4.26,1.81
		c-2.42-0.88-4.61-2.19-6.74-3.59c-2.86-1.86-5.32-4.09-6.39-7.5c-0.38-1.2-0.47-2.32,0.03-3.59c1.11-2.81,1.32-5.74,0.52-8.69
		c-0.7-2.57-2.17-3.55-4.75-3.21c-0.04-2.75,0.13-5.49,0.42-8.23c0.01-0.14-0.1-0.29-0.15-0.43c0.32-0.36,0.41-0.83,0.54-1.27
		c1.8-6.31,7.96-10.9,14.35-10.7c6.85,0.22,12.93,5.23,14.32,11.8c0.55,2.6,0.63,5.22,0.3,7.85c-0.59,0.02-1.06,0.32-1.52,0.64
		c-0.56,0.39-1.17,0.65-1.86,0.78c-2.34,0.46-4.3-0.39-6.15-1.7c-1.49-1.05-2.46-2.61-3.77-3.84c-1.8-1.71-3.88-1.48-5.3,0.56
		c-0.93,1.34-1.07,2.86-0.8,4.37c0.26,1.44,0.48,2.67-1.32,3.26c-0.39,0.13-0.69,0.65-0.97,1.03c-1.35,1.85-1.62,3.98-0.99,6.06
		c1.62,5.29,4.66,9.7,9,13.13c1.91,1.51,4.44,2.07,5.97-1.44C422.3,239.65,423.2,238.43,424.65,237.73z"/>
	<path fill="#FDB280" d="M276.03,72.35c0.08-0.82,0.2-1.61,0.47-2.4c0.33-0.98-0.65-1.58-1.03-2.36c-0.61-1.68-1.7-3.19-1.79-5.06
		c0.06-2.41,0.47-4.76,1.21-7.05c1.11-3.43,2.16-3.84,5.3-2.1c3.55,1.97,7.14,2,10.74,0.12c2.06-1.08,2.66-0.84,3.41,1.34
		c0.95,2.79,1.56,5.68,2.37,8.5c-0.61,0.47-0.42,1.21-0.62,1.82c-0.37,1.15-0.71,2.31-1.07,3.46c-0.5,0.77-0.99,1.54-1.49,2.3
		c-0.16,0.24-0.28,0.48-0.22,0.78c0.26,1.25-0.06,2.45-0.28,3.67c-0.39,1-0.72,2.02-1.17,3c-2.36,5.2-8.44,6.31-12.56,2.33
		C276.91,78.41,276.2,75.49,276.03,72.35z"/>
	<path fill="#FDB280" d="M424.65,237.73c-1.45,0.7-2.34,1.92-2.96,3.33c-1.53,3.51-4.05,2.95-5.97,1.44
		c-4.34-3.43-7.38-7.84-9-13.13c-0.63-2.07-0.36-4.21,0.99-6.06c0.28-0.38,0.58-0.9,0.97-1.03c1.8-0.58,1.59-1.81,1.32-3.26
		c-0.27-1.51-0.13-3.03,0.8-4.37c1.42-2.04,3.5-2.27,5.3-0.56c1.3,1.23,2.27,2.79,3.77,3.84c1.85,1.31,3.81,2.16,6.15,1.7
		c0.68-0.14,1.29-0.39,1.86-0.78c0.46-0.32,0.94-0.62,1.52-0.64c-0.5,6.58-1.68,13.01-4.16,19.16c-0.08,0-0.15,0.03-0.2,0.09
		c-0.2,0.01-0.31,0.11-0.32,0.31L424.65,237.73z"/>
	<path fill="#312934" d="M296.7,63.35c-0.81-2.83-1.42-5.71-2.37-8.5c-0.74-2.18-1.34-2.42-3.41-1.34
		c-3.59,1.89-7.18,1.86-10.74-0.12c-3.14-1.74-4.19-1.34-5.3,2.1c-0.74,2.29-1.16,4.64-1.21,7.05c-2.07-1.42-2.53-3.72-2.98-5.91
		c-1.23-5.9,0.21-11.14,4.28-15.61c2.26-2.49,5.19-3.47,8.45-3.6c2.08-0.08,4.15,0.16,6.15,0.73c5.86,1.68,9.2,6.09,9.47,12.73
		C299.23,55.19,298.15,59.31,296.7,63.35z"/>
	<path fill="#FDB280" d="M434.15,296.14c-0.02-1.67,0.5-3.24,0.93-4.83c1.12-2.78,3.27-4.48,5.91-5.66c1.13-0.22,2.22-0.6,3.4-0.58
		c2.67,0.04,4.42,1.25,5.32,3.78c0.06,0.18,0.16,0.35,0.24,0.53c0.44,3.19-0.66,5.96-2.39,8.53c-2.05,3.04-3.98,6.12-5.25,9.6
		c-0.95,2.58-2.94,3.87-5.75,3.76c-0.72-0.03-1.43-0.06-2.15-0.09c-0.51-0.2-1.04-0.38-1.54-0.6c-2.94-1.3-3.39-3.7-1.13-5.95
		c2.01-1.99,5.32-2.58,7.98-1.43c0.4,0.17,0.76,0.58,1.24-0.01c1.82-2.27,3.67-4.5,5.53-6.74c0.34-0.41,0.47-0.86,0.3-1.33
		c-0.19-0.55-0.72-0.38-1.14-0.42c-2.49-0.23-4.99-0.41-7.48-0.69c-1.39-0.16-2.6-0.1-3.34,1.33
		C434.68,295.64,434.39,295.88,434.15,296.14z"/>
	<path fill="#F1F0EE" d="M434.15,296.14c0.23-0.27,0.53-0.5,0.69-0.81c0.73-1.43,1.95-1.49,3.34-1.33c2.49,0.28,4.98,0.46,7.48,0.69
		c0.42,0.04,0.95-0.12,1.14,0.42c0.16,0.47,0.04,0.92-0.3,1.33c-1.86,2.24-3.71,4.47-5.53,6.74c-0.47,0.59-0.84,0.18-1.24,0.01
		c-2.66-1.15-5.98-0.56-7.98,1.43c-2.26,2.25-1.81,4.65,1.13,5.95c0.5,0.22,1.03,0.4,1.54,0.6c-0.63,0.76-1.24,1.54-1.9,2.28
		c-0.27,0.31-0.52,0.59-0.55,1.02c-0.66,0.56-1.38,0.53-2.21,0.41c-2.72-0.38-5.45-0.67-8.17-1c-0.29-0.04-0.72,0.15-0.83-0.24
		c-0.09-0.32,0.26-0.55,0.45-0.79c3.21-4.11,6.43-8.22,9.63-12.33C431.95,299.07,433.05,297.6,434.15,296.14z"/>
	<path fill="#FDB280" d="M310.2,123.88c1.2-0.02,2.39-0.02,3.56,0.33c2.11,0.63,3.44,2.06,4.23,4.07c0.46,1.89,0.04,3.69-0.58,5.46
		c-1.21,1.71-2.78,3.01-4.69,3.87c-0.84,0.14-1.64,0.54-2.53,0.47c-2.77,0.19-4.76-0.94-5.6-3.62c-0.71-2.29-0.78-4.69-0.23-7.04
		c0.36-1.55,1.41-2.53,2.91-3.05C308.23,124.05,309.21,123.91,310.2,123.88z"/>
	<path fill="#3C8F93" d="M312.72,137.62c1.91-0.87,3.48-2.16,4.69-3.87c0.41,0.51,0.68,1.1,0.81,1.71c0.9,4.07,3.11,7.01,7.28,8.39
		c-0.34,0.19-0.57,0.31-0.79,0.43c-3.01,0.39-6.02,0.35-9.04,0.06C315.69,141.66,314.74,139.4,312.72,137.62z"/>
	<path fill="#909BBE" d="M129.06,453.93c-0.9-3.88-0.64-7.6,1.52-11.06c3.06,1.8,6.19,3.48,9.53,4.68c4.79,1.71,9.14,3.97,12.67,7.8
		c2.2,2.39,5.38,3.17,8.6,3.37c3.09,0.19,5.98-0.65,8.84-1.68c0.27,0.87,1.15,1.16,1.71,1.75c2.08,2.16,4,4.48,6.3,6.43
		c0.69,1.06,1.74,1.77,2.71,2.49c4.42,3.27,9.09,6.13,13.89,8.8c0.64,0.77,1.13,1.63,1.33,2.61c0.33,1.55,0.47,3.13,0.49,4.71
		c0.02,1.67,0.41,3.44-0.96,4.85c-4.07,1.2-8.11,0.63-12.11-0.32c-1.81-0.43-3.58-1.05-5.37-1.59c-0.19-0.13-0.37-0.3-0.58-0.39
		c-4.66-1.99-9.02-4.51-13.28-7.23c-1.73-1.11-3.54-2.1-5.31-3.15c-1.67-1.15-3.41-2.16-5.26-2.98c-2.38-1.48-5.03-2.39-7.58-3.5
		c-3.62-1.57-7.26-3.07-10.41-5.55C132.47,461.34,130.21,458.02,129.06,453.93z"/>
	<path fill="#7783A0" d="M194.84,476.52c-4.8-2.67-9.48-5.53-13.89-8.8c-0.97-0.72-2.02-1.43-2.71-2.49
		c2.37-0.79,4.79-1.45,7.14-2.34c4.92-1.86,9.46-4.32,13.46-7.79c2.43-2.11,4.77-4.33,7.38-6.22c1.86-1.35,3.73-2.68,5.6-4.02
		c1.32-0.81,2.66-1.58,3.96-2.42c3.29-2.14,6.73-2.93,10.52-1.46c1.66,0.64,3.02,1.74,4.49,2.68c0.9,1.1,1.92,2.1,2.63,3.36
		c1.99,3.5,1.86,7.12,0.57,10.79c-0.18,0.52-0.37,1.04-0.55,1.56c-3.68,6.51-9.91,9.83-16.26,13.01c-0.28,0.14-0.53,0.27-0.88,0.05
		c-2.18-1.38-4.33-0.88-6.45,0.19c-1.77,0.11-3.42,0.67-5.01,1.41c-1.99,0.92-4,1.78-6.22,1.93
		C197.33,476.03,196.06,476.12,194.84,476.52z"/>
	<path fill="#312934" d="M392.23,470.21c0.41,0.57,0.97,0.61,1.6,0.49c7.11-1.33,14.22-2.66,21.33-3.98
		c1.95-0.36,3.91-0.68,5.86-1.04c0.58-0.11,1.24-0.16,1.2-1.01c2.22-0.97,3.93,0.01,5.51,1.46c2.64,2.43,5.7,4.07,9.22,4.76
		c1.91,0.37,3.88,0.47,5.79,0.83c2.67,0.5,4.91,1.64,5.76,4.51c-1.09,0.01-2.07,0.51-3.12,0.73c-6.42,1.36-12.9,2.03-19.47,1.92
		c-0.39-0.01-0.83-0.12-1.23,0.15c0.43,0.4,0.8,0.75,1.17,1.1c0.42,0.73,0.92,1.43,0.87,2.33c-3.4,0.59-6.8,1.25-10.24,1.4
		c-5.65,0.24-11.29,0.1-16.83-1.33c-3.4-0.88-6.69-2.03-9.8-3.67C389.93,475.78,390.68,472.89,392.23,470.21z"/>
	<path fill="#F9AB51" d="M194.84,476.52c1.22-0.4,2.48-0.48,3.76-0.57c2.22-0.15,4.23-1.01,6.22-1.93c1.59-0.74,3.24-1.3,5.01-1.41
		c4.5,0.31,6.83,4.34,7.5,8.11c0.42,2.37,0.27,4.68-0.84,6.86c-0.83,1.64-2.31,2.41-4.11,2.28c-3.13-0.23-6.27-0.47-9.41-0.63
		c-2.43-0.12-4.85-0.21-7.26-0.55c1.37-1.41,0.98-3.18,0.96-4.85c-0.02-1.58-0.17-3.16-0.49-4.71
		C195.97,478.15,195.48,477.29,194.84,476.52z M204.86,482.1c0.05-1.54-0.25-3.02-0.81-4.44c-0.17-0.43-0.32-1.01-0.94-0.92
		c-0.61,0.09-0.62,0.67-0.62,1.14c-0.01,0.72,0,1.44,0.09,2.15c0.26,2.12,0.89,4.26-0.49,6.26c-0.2,0.3-0.09,0.63,0.2,0.85
		c0.35,0.27,0.76,0.26,1.13,0.08c0.54-0.27,0.79-0.8,0.93-1.34C204.67,484.65,204.91,483.39,204.86,482.1z M208.74,483.43
		c-0.02-2.36-0.44-4.35-0.76-6.36c-0.03-0.19-0.1-0.39-0.19-0.56c-0.18-0.34-0.45-0.61-0.85-0.51c-0.39,0.09-0.38,0.46-0.38,0.78
		c0,0.24-0.01,0.49,0.05,0.71c0.77,3.07,0.81,6.15,0.17,9.24c-0.08,0.37-0.3,0.85,0.22,1.04c0.47,0.17,0.71-0.27,0.9-0.61
		C208.59,485.9,208.8,484.53,208.74,483.43z M199.71,482.47c0.01,1.07-0.22,2.48-0.75,3.83c-0.15,0.38-0.25,0.85,0.2,1.06
		c0.52,0.24,0.68-0.28,0.86-0.6c1.37-2.57,1.6-5.22,0.51-7.95c-0.12-0.29-0.3-0.57-0.5-0.8c-0.24-0.29-0.61-0.48-0.96-0.27
		c-0.4,0.23-0.07,0.57,0.03,0.84C199.51,479.71,199.69,480.89,199.71,482.47z"/>
	<path fill="#F9AB51" d="M153.79,473.03c1.85,0.82,3.6,1.83,5.26,2.98c-0.5,1.18-0.31,2.34,0.2,3.46c0.82,1.8,1.67,3.6,2.55,5.37
		c0.49,0.99,1.12,1.91,1.97,2.66c-6.73,0.77-13.46,0.77-20.19,0.08c-0.71-0.07-1.42-0.1-2.14-0.23c-3.6-0.69-4.97-3.26-3.45-6.65
		c1.49-3.33,4.26-5.2,7.56-6.37C148.22,473.39,150.99,473.12,153.79,473.03z M155.68,479.7c0-0.28,0.02-0.56-0.01-0.83
		c-0.04-0.43-0.05-0.95-0.64-0.97c-0.54-0.01-0.58,0.48-0.62,0.87c-0.26,2.31-1.19,4.35-2.51,6.23c-0.26,0.37-0.48,0.81-0.12,1.2
		c0.38,0.42,0.89,0.27,1.33,0.08c0.38-0.16,0.64-0.47,0.84-0.82C154.96,483.67,155.62,481.77,155.68,479.7z M150.59,477.53
		c-0.3,0.2-0.33,0.48-0.37,0.76c-0.33,2.37-1.26,4.5-2.61,6.46c-0.24,0.35-0.8,0.77-0.3,1.23c0.4,0.36,0.91,0.07,1.32-0.18
		c0.61-0.36,0.98-0.92,1.27-1.54c0.72-1.54,1.09-3.16,1.09-4.85C151,478.79,151.15,478.07,150.59,477.53z M158.99,481.6
		c-0.06-0.52-0.08-1.12-0.2-1.7c-0.13-0.59-0.03-1.58-0.71-1.57c-0.61,0.01-0.36,0.97-0.47,1.52c-0.34,1.74-0.14,3.58-1.01,5.22
		c-0.17,0.32-0.66,0.62-0.22,1.02c0.4,0.36,0.83,0.08,1.2-0.15c0.5-0.3,0.77-0.8,0.95-1.33
		C158.85,483.66,158.92,482.67,158.99,481.6z"/>
	<path fill="#FEFEFE" d="M386.15,430.54c0.06,4.59,0.23,9.18,0.75,13.75c0.26,2.26,0.57,4.51,0.85,6.77
		c-2.92-0.22-5.84-0.44-8.76-0.66c-1.34-0.1-2.69-0.13-4.04-0.25c-3-0.27-6.01-0.36-9.02-0.53c-0.24-0.01-0.48-0.04-0.63-0.26
		C373.46,444.43,380.36,438.11,386.15,430.54z"/>
	<path fill="#7783A0" d="M163.77,487.5c-0.85-0.74-1.47-1.66-1.97-2.66c-0.88-1.78-1.73-3.57-2.55-5.37
		c-0.51-1.11-0.69-2.27-0.2-3.46c1.77,1.05,3.57,2.05,5.31,3.15c4.26,2.72,8.63,5.24,13.28,7.23c0.21,0.09,0.39,0.26,0.58,0.39
		c-4.04,0.38-8.08,0.77-12.12,1.11C165.32,487.96,164.52,487.81,163.77,487.5z"/>
	<path fill="#5E4540" d="M389.86,478.87c3.11,1.64,6.4,2.79,9.8,3.67c5.54,1.44,11.18,1.57,16.83,1.33
		c3.44-0.15,6.84-0.81,10.24-1.4c0.24,1.34,0.04,1.63-1.3,1.91c-6.2,1.3-12.44,1.72-18.77,1.01c-5.25-0.59-10.32-1.82-15.2-3.81
		C389.67,480.86,389.68,480.85,389.86,478.87z"/>
	<path fill="#5E4540" d="M425.86,480.14c-0.37-0.35-0.74-0.7-1.17-1.1c0.4-0.27,0.83-0.16,1.23-0.15
		c6.56,0.11,13.05-0.57,19.47-1.92c1.04-0.22,2.02-0.73,3.12-0.73c0.52,1.55,0.35,1.81-1.23,2.18c-6.26,1.47-12.61,2.04-19.03,1.89
		C427.45,480.29,426.66,480.2,425.86,480.14z"/>
	<path fill="#C25D5C" d="M196.25,396.7c0.33-0.14,0.62,0.02,0.92,0.12c3.93,1.32,7.84,2.68,11.79,3.95
		c3.96,1.28,6.91,3.81,9.41,7.06c4.14,5.38,7.97,10.98,11.7,16.65c0.12,0.19,0.18,0.43,0.27,0.64c-0.39,0.06-0.68-0.19-1.01-0.32
		c-3.67-1.46-7.11-1.14-10.2,1.42c-1.18,0.98-2,2.27-2.26,3.83c-0.22,1.3,0.22,2.37,1.38,3.22c-1.43,0.48-2.71,0.89-4.06,1.01
		c-1.14-0.99-2.24-2.02-3.42-2.95c-1.25-0.98-2.55-0.71-3.46,0.59c-0.62,0.88-0.57,1.87-0.58,2.86c-0.57,0.03-1.09-0.13-1.61-0.36
		c-2.69-1.17-5.31-2.56-8.39-2.34c-0.31-4.18-0.58-8.36-0.93-12.53c-0.2-2.4-0.81-2.94-3.18-2.8c-8.96,0.55-17.92,1.13-26.89,1.71
		c-1.36,0.09-2.02,0.91-1.85,2.38c0.49,4.16,1.05,8.31,1.53,12.47c0.46,4,1.11,7.98,1.38,12c-1.39,0.17-2.63-0.52-3.95-0.73
		c-0.15-2.22-0.31-4.44-0.45-6.67c-0.24-3.97-1.17-7.7-3.62-10.93c-1.26-1.67-2.38-1.72-3.81-0.17c-0.35,0.38-0.65,0.81-0.95,1.22
		c-0.76,1.02-1.25,2.21-2.15,3.13c0-0.99,0.03-1.98,0-2.96c-0.05-1.72-0.46-3.34-1.47-4.76c-0.6-0.89-1.07-1.85-1.71-2.72
		c-2.22-3-5.11-4.81-8.85-5.19c0.14-0.62,0.6-1.03,1.01-1.45c8.61-8.87,18.61-15.42,30.79-18.25c0.7-0.16,1.4-0.28,2.1-0.42
		c0.48,1.39,0.97,2.77,1.45,4.16c0.6,1.72,1.43,3.29,2.99,4.35c0.52,0.36,1.04,0.72,1.45,1.23c1.37,1.72,3.22,2.45,5.31,1.88
		c3.45-0.94,6.37-2.82,8.64-5.61C194.73,400,195.97,398.62,196.25,396.7z"/>
	<path fill="#3F344B" d="M312.72,137.62c2.02,1.79,2.97,4.05,2.97,6.73c0.01,2.71-0.92,5.16-2.11,7.52
		c-3.26,6.48-6.56,12.94-9.84,19.41c-0.21,0.42-0.54,0.8-0.53,1.31c-0.16,0.22-0.35,0.43-0.47,0.67c-1.59,3.08-3.16,6.17-4.75,9.25
		c-1.42,2.76-2.68,5.61-4.26,8.29c-0.27,0.46-0.43,0.94-0.38,1.48c-0.55-0.03-0.58,0.47-0.77,0.78c-1.19,2.04-2.56,3.94-4.4,5.47
		c-0.33,0.28-0.66,0.58-1.1,0.69c-0.37-0.01-0.38-0.32-0.5-0.57c-1.03-2.01-1.84-4.14-3.3-5.92c-1.96-2.4-4.17-3.24-7.13-1.92
		c-1.71,0.76-3.31,1.72-4.78,2.89c-0.7-4.61,0.75-8.73,2.95-12.66c1.01-1.81,2.05-3.6,3.07-5.4c0.19-0.34,0.47-0.66,0.34-1.1
		c0.51-0.03,0.59-0.47,0.78-0.81c5.4-9.17,11.79-17.66,17.98-26.28c1.2-1.67,2.66-3.16,3.57-5.03c1.82-0.01,3.65-0.03,5.47-0.03
		c3.08-0.01,4.43-1.24,4.65-4.29C311.08,138.15,311.88,137.76,312.72,137.62z"/>
	<path fill="#FDB280" d="M139.82,415.53c3.74,0.38,6.64,2.19,8.85,5.19c0.64,0.87,1.11,1.83,1.71,2.72c0.23,1.31-0.34,2.2-1.43,2.87
		c-1.65,1.02-3.26,2.11-4.89,3.17c-0.61,0.27-1.22,0.58-1.84,0.81c-0.66,0.24-0.72,0.54-0.51,1.24c0.92,3.06,3.36,4.58,5.87,6.06
		c0.09,0.51,0.56,0.64,0.91,0.87c1.61,1.1,3.24,2.17,4.85,3.27c1.59,1.08,3.2,2.11,5.21,2.16c1.39,0.47,2.84,0.6,4.29,0.68
		c1.32,0.22,2.56,0.9,3.95,0.73c0.34,0.29,0.74,0.41,1.17,0.53c2.29,0.64,4.63,1.14,6.81,2.14c1.09,0.5,1.57,1.33,1.61,2.55
		c0.04,1.11-0.43,2-0.84,2.94c-1.48,1.63-3.43,2.56-5.33,3.56c-2.86,1.03-5.76,1.88-8.84,1.68c-3.22-0.2-6.4-0.98-8.6-3.37
		c-3.53-3.84-7.89-6.09-12.67-7.8c-3.34-1.2-6.47-2.89-9.53-4.68c-1.2-1.11-2.55-2.03-3.69-3.21c-5.19-5.42-5.09-10.61,0.46-15.63
		c3.68-3.33,7.81-6.05,12.26-8.28c0.08-0.07,0.16-0.15,0.25-0.22C139.85,415.53,139.82,415.53,139.82,415.53z"/>
	<path fill="#FDB280" d="M196.72,432.09c3.08-0.22,5.7,1.16,8.39,2.34c0.52,0.23,1.04,0.39,1.61,0.36c2.53,0.5,5,0.15,7.46-0.5
		c1.36-0.12,2.64-0.52,4.06-1.01c-1.16-0.85-1.59-1.92-1.38-3.22c0.26-1.56,1.08-2.85,2.26-3.83c3.09-2.55,6.53-2.87,10.2-1.42
		c0.33,0.13,0.62,0.38,1.01,0.32c0,0-0.03,0.01-0.03,0.01c0.11,0.09,0.21,0.18,0.32,0.27c1.45,1.58,3.09,3,4.32,4.78
		c1.46,2.1,2.78,4.27,3.35,6.81c0.61,2.75,0.04,3.89-2.56,4.91c-1.63,0.64-3.3,1.17-4.95,1.75c-1.46-0.95-2.83-2.04-4.49-2.68
		c-3.79-1.47-7.24-0.68-10.52,1.46c-1.3,0.84-2.64,1.62-3.96,2.42c-1.61-0.22-3.16-0.04-4.64,0.68c-1.69,0.83-3.49,1.25-5.36,1.5
		c-1.31,0.18-2.62,0.09-3.92,0.29c-1.93-0.24-3.88-0.22-5.78-0.76c-3.52-0.99-5.55-4.47-4.62-8.01
		C188.55,434.54,192.02,432.11,196.72,432.09z"/>
	<path fill="#FDB280" d="M369.13,312.52c-0.41-1.36-1.23-2.56-1.5-3.99c-0.51-2.75,0.52-4.9,3.08-6.22c2.93-1.5,4.94-1.2,7.02,0.98
		c0.84,0.88,1.38,1.93,1.96,2.97c0.61,2.1,1.51,4.1,2.4,6.09c1.08,2.4,2.3,4.72,4.03,6.73c1.59,2.32,3.58,4.27,5.64,6.17
		c1.62,1.5,3.7,1.75,5.76,2.05c2.41,0.34,4.79,0.8,7.02,1.85c0.57,0.27,0.82,0.6,0.83,1.27c0.1,5.4-4.09,11.51-9.17,13.32
		c-0.62,0.22-1.13,0.12-1.69-0.23c-1.94-1.21-3.32-2.97-4.72-4.71c-2-2.48-3.98-4.98-5.97-7.47c-2.76-3.55-5.52-7.1-8.28-10.66
		c-1.98-2.55-4.06-5.01-5.9-7.67C369.5,312.83,369.3,312.69,369.13,312.52z"/>
	<path fill="#FDB280" d="M196.25,396.7c-0.29,1.91-1.53,3.3-2.68,4.71c-2.27,2.79-5.2,4.68-8.64,5.61
		c-2.09,0.57-3.94-0.16-5.31-1.88c-0.41-0.51-0.93-0.87-1.45-1.23c-1.56-1.07-2.39-2.63-2.99-4.35c-0.48-1.39-0.97-2.77-1.45-4.16
		c-0.23-1.62-1.04-3-1.82-4.38c-1.24-2.17-1.62-4.47-1.33-6.91c1.13,1.88,1.41,4.04,1.99,6.11c0.12-1.05,0.12-2.07,0.12-3.09
		c0-0.88-0.13-1.83,0.39-2.56c1.29-1.83,2.02-3.85,2.51-6.01c0.31-1.37,1.16-1.65,2.33-0.84c4.03,2.76,8.06,2.81,12.18,0.2
		c1.53-0.97,2.41-0.62,3.04,1.05c0.96,2.56,1.45,5.21,1.4,7.96c-0.02,0.98-0.04,1.97,0.62,2.96c0.64-2.03,1.23-3.93,1.83-5.82
		c0.45,0.94,0.25,1.88-0.06,2.78c-0.86,2.56-1.73,5.12-2.7,7.64c-0.33,0.85-0.23,1.27,0.63,1.56
		C195.34,396.2,195.79,396.48,196.25,396.7z"/>
	<path fill="#3F344B" d="M257.46,144.79c0.59-0.82,1.14-1.67,1.88-2.37c4.15,0,8.3-0.01,12.45-0.01c0,0.34,0.28,0.45,0.51,0.61
		c1.96,1.38,3.75,2.95,5.41,4.68c1.1,1.15,2.08,2.44,3.29,3.46c1.72,1.45,3.17,3.15,4.84,4.63c0.53,0.47,0.4,0.82,0.07,1.29
		c-0.88,1.28-1.75,2.57-2.59,3.87c-2.46,3.81-5.18,7.46-7.45,11.4c-5.35-6.03-10.76-12.01-15.93-18.19
		c-1.44-1.73-2.55-3.65-2.88-5.96C256.88,147.01,257.23,145.91,257.46,144.79z"/>
	<path fill="#312934" d="M196.98,384.06c-0.59,1.9-1.19,3.79-1.83,5.82c-0.66-0.99-0.64-1.99-0.62-2.96
		c0.05-2.75-0.44-5.39-1.4-7.96c-0.63-1.67-1.51-2.02-3.04-1.05c-4.12,2.61-8.15,2.56-12.18-0.2c-1.17-0.8-2.02-0.53-2.33,0.84
		c-0.5,2.16-1.22,4.18-2.51,6.01c-0.52,0.74-0.4,1.69-0.39,2.56c0,1.02,0,2.04-0.12,3.09c-0.57-2.08-0.86-4.23-1.99-6.11
		c-1.64-5.06,0.07-9.68,1.99-14.22c0.97-2.28,2.85-3.69,5.39-4.08c3.6-0.56,7.19-0.87,10.8,0.02c4.59,1.13,6.94,3.63,7.44,8.34
		C196.55,377.46,196.53,380.77,196.98,384.06z"/>
	<path fill="#312934" d="M312.38,186.25c2.25,2.09,4.35,4.34,6.7,6.33c1.44,1.23,2.65,2.68,3.25,4.52c1.13,3.5-0.44,6.15-4.08,6.93
		c-2.22,0.17-4.36-0.26-6.48-0.86c-2.95-0.84-5.81-0.69-8.57,0.73c-2.08,1.07-3.68,2.64-4.82,4.68c-0.1,0.18-0.1,0.94-0.63,0.27
		c-0.32-3.15,0.1-6.23,1.02-9.24c0.13-0.41,0.2-0.84,0.29-1.26c0.4-1.12,0.8-2.24,1.2-3.37c0.94-2.67,1.9-5.35,4.21-7.22
		C307.19,185.55,309.53,184.27,312.38,186.25z"/>
	<path fill="#312934" d="M275.86,172.36c2.27-3.94,4.98-7.59,7.45-11.4c0.84-1.3,1.71-2.59,2.59-3.87c0.32-0.47,0.46-0.82-0.07-1.29
		c-1.67-1.48-3.12-3.19-4.84-4.63c-1.21-1.02-2.19-2.31-3.29-3.46c-1.66-1.73-3.45-3.3-5.41-4.68c-0.22-0.16-0.51-0.27-0.51-0.61
		c9.43,0,18.86,0,28.29,0c-0.91,1.87-2.37,3.36-3.57,5.03c-6.19,8.63-12.58,17.12-17.98,26.28c-0.2,0.33-0.27,0.78-0.78,0.81
		C277.03,173.88,276.42,173.14,275.86,172.36z"/>
	<path fill="#FDB280" d="M399.64,219.19c2.58-0.34,4.06,0.64,4.75,3.21c0.8,2.95,0.59,5.88-0.52,8.69c-0.5,1.26-0.41,2.38-0.03,3.59
		c1.07,3.41,3.53,5.63,6.39,7.5c2.14,1.39,4.33,2.71,6.74,3.59c-1.47,2.84-3.52,5.21-6.01,7.2c-0.66,0.53-1.35,0.69-2.22,0.52
		c-2.74-0.54-4.75-2.19-6.54-4.16c-2.69-2.96-4.41-6.52-6.15-10.07c-0.23-0.47-0.04-0.69,0.3-0.99c1.2-1.05,2.33-2.17,3.08-3.62
		c0.34-0.33,0.58-0.72,0.71-1.18c0.83-1.14,1.16-2.5,1.59-3.81c0.2-0.61,0.05-1.16-0.37-1.65c-0.41-0.48-0.8-0.97-1.2-1.46
		C399.09,224.15,399.24,221.68,399.64,219.19z"/>
	<path fill="#312934" d="M271.38,193.69c1.47-1.17,3.07-2.12,4.78-2.89c2.96-1.32,5.17-0.47,7.13,1.92c1.45,1.78,2.26,3.91,3.3,5.92
		c0.13,0.24,0.13,0.55,0.5,0.57c-0.21,0.51,0.08,0.92,0.25,1.35c0.75,1.83,1.58,3.63,2.23,5.5c0.59,1.69-0.2,2.83-1.9,3.02
		c-0.89-0.38-1.6-0.95-2.2-1.75c-0.97-1.29-2.27-2.17-3.86-2.65c-2.64-0.81-5.34-0.62-8.03-0.68c-2.74-0.07-5.24-0.79-7.2-2.86
		c-0.92-1.09-0.46-2.02,0.3-2.95C268.06,196.49,269.71,195.08,271.38,193.69z"/>
	<path fill="#3F344B" d="M312.38,186.25c-2.85-1.97-5.2-0.69-7.91,1.51c-2.31,1.87-3.26,4.55-4.21,7.22c-0.4,1.12-0.8,2.25-1.2,3.37
		c-1.73-1.16-2.86-2.91-4.25-4.4c0.46-0.02,0.54-0.41,0.7-0.72c3.21-6.16,6.41-12.33,9.61-18.49c2.14,2.35,4.15,4.82,5.83,7.52
		C311.72,183.47,312.36,184.76,312.38,186.25z"/>
	<path fill="#5E4540" d="M266.39,201.15c1.96,2.07,4.46,2.79,7.2,2.86c2.69,0.06,5.39-0.13,8.03,0.68c1.58,0.49,2.89,1.36,3.86,2.65
		c0.6,0.8,1.31,1.37,2.2,1.75c-0.16,0.74-0.75,0.98-1.38,1.16c-1.43,0.41-2.87,0.25-4.26-0.13c-3.8-1.04-7.59-2.15-11.37-3.27
		c-0.96-0.28-1.86-0.73-2.64-1.38C266.67,204.34,265.94,202.97,266.39,201.15z"/>
	<path fill="#5E4540" d="M297.76,208.85c0.53,0.66,0.53-0.09,0.63-0.27c1.14-2.04,2.74-3.6,4.82-4.68c2.76-1.42,5.62-1.57,8.57-0.73
		c2.12,0.6,4.26,1.04,6.48,0.86c-3.48,1.68-6.92,3.39-10.85,3.87c-2.17,0.27-4.16,1.34-6.24,2.03c-0.53,0.17-1.06,0.38-1.6,0.48
		C298.39,210.62,297.82,210.1,297.76,208.85z"/>
	<path fill="#312934" d="M305.13,174.74c-3.2,6.16-6.41,12.33-9.61,18.49c-0.16,0.31-0.25,0.7-0.7,0.72
		c-0.49-0.56-0.97-1.11-1.46-1.67c-0.05-0.54,0.11-1.02,0.38-1.48c1.58-2.68,2.84-5.53,4.26-8.29c1.59-3.08,3.16-6.17,4.75-9.25
		c0.12-0.24,0.31-0.45,0.47-0.67C303.97,173.2,304.57,173.95,305.13,174.74z"/>
	<path fill="#FEFEFE" d="M400.15,226.54c0.4,0.49,0.79,0.98,1.2,1.46c0.42,0.49,0.57,1.04,0.37,1.65c-0.43,1.31-0.76,2.66-1.59,3.81
		C400.14,231.16,400.14,228.85,400.15,226.54z"/>
	<path fill="#C25D5C" d="M230.62,425.41c-0.11-0.09-0.21-0.18-0.32-0.27C230.51,425.11,230.55,425.27,230.62,425.41z"/>
	<path fill="#C25D5C" d="M139.85,415.53c-0.08,0.07-0.17,0.15-0.25,0.22C139.64,415.62,139.69,415.51,139.85,415.53z"/>
	<path fill="#FEFEFE" d="M405.89,455.3c-1.18-3.41-1.9-6.94-2.66-10.46c-1.23-5.69-1.72-11.45-1.42-17.25
		c0.25-4.8,1.13-9.53,2.01-14.25c2.43-13.02,4.88-26.03,7.32-39.05c0.07-0.35,0.17-0.69,0.26-1.09c3.14,6.81,6.25,13.54,9.35,20.27
		c0.63,1.36,1.62,2.7,1.73,4.11c0.11,1.38-1.16,2.61-1.83,3.9c-4.47,8.69-7.85,17.81-10.44,27.21c-1.44,5.24-2.44,10.59-3.17,15.99
		C406.57,448.2,406.14,451.72,405.89,455.3z"/>
	<path fill="#0095EF" d="M386.13,319.09c-1.73-2.01-2.95-4.33-4.03-6.73c-0.89-1.99-1.79-3.99-2.4-6.09c0.57-1.18,0.05-2.25-0.4-3.3
		c-0.67-1.57-1.66-3-2-4.72c-0.23-1.12-0.06-2.21,0.21-3.3c1.15-4.59,2.3-9.19,3.46-13.78c0.04-0.15,0.13-0.29,0.27-0.59
		c1.29,2.76,2.47,5.42,3.48,8.16c1.67,4.48,2.47,9.13,2.69,13.89c0.19,4.1,0.46,8.19,0.7,12.29c0.02,0.31-0.02,0.65,0.23,0.9
		C387.19,316.63,386.62,317.84,386.13,319.09z"/>
	<path fill="#3F344B" d="M440.99,285.66c-2.64,1.18-4.79,2.88-5.91,5.66c-0.59-0.82-0.06-1.66,0.08-2.41
		c0.79-4.05,1.01-8.12,0.91-12.22c-0.01-0.23,0-0.47,0.22-0.78c0.64,1.33,1.26,2.66,1.92,3.98
		C439.16,281.79,439.85,283.83,440.99,285.66z"/>
	<path fill="#5E4540" d="M424.71,237.76c0.01-0.21,0.12-0.3,0.32-0.31C425.01,237.64,424.96,237.8,424.71,237.76z"/>
	<path fill="#F1F0EE" d="M300.08,142.41c-9.43,0-18.86,0-28.29,0c-4.15,0-8.3,0.01-12.45,0.01c-1.16-0.01-2.31-0.02-3.47-0.05
		c-2.21-0.05-3.82-1.56-3.82-3.76c-0.03-9.59-0.03-19.17,0-28.76c0.01-2.22,1.59-3.71,3.84-3.72c5.23-0.04,10.46-0.04,15.69-0.06
		c6.14,0,12.27,0,18.41,0c5.19,0.02,10.39,0.15,15.58,0.01c3.2-0.08,4.71,2.11,4.64,4.62c-0.13,4.39-0.01,8.79,0.01,13.18
		c-1,0.03-1.97,0.17-2.92,0.49c-1.5,0.52-2.55,1.5-2.91,3.05c-0.55,2.36-0.48,4.75,0.23,7.04c0.83,2.68,2.83,3.81,5.6,3.62
		c-0.22,3.05-1.56,4.29-4.65,4.29C303.73,142.38,301.9,142.4,300.08,142.41z M284.49,124.36c0.01-2.28-1.2-3.57-3.35-3.57
		c-2.07,0-3.59,1.46-3.6,3.46c-0.01,1.94,1.52,3.49,3.45,3.49C282.96,127.75,284.48,126.28,284.49,124.36z"/>
	<path fill="#5E4540" d="M289.98,106.08c-6.14,0-12.27,0-18.41,0c-0.08-2.99,0.41-5.94,0.62-8.91c0.11-1.51,0.16-3.02,0.27-4.52
		c0.33-4.44,0.4-8.9,1.01-13.31c0.34-2.5,0.99-4.91,2.56-6.97c0.18,3.14,0.89,6.06,3.26,8.35c4.13,3.98,10.21,2.87,12.56-2.33
		c0.44-0.98,0.78-2,1.17-3c0.71,3.67-0.06,7.28-0.46,10.89c-0.38,3.43-0.91,6.84-1.36,10.25
		C290.78,99.7,290.38,102.89,289.98,106.08z"/>
	<path fill="#626B82" d="M197.89,447.33c1.3-0.19,2.61-0.11,3.92-0.29c1.87-0.25,3.67-0.67,5.36-1.5c1.48-0.73,3.03-0.9,4.64-0.68
		c-1.87,1.34-3.74,2.67-5.6,4.02c-2.61,1.89-4.95,4.11-7.38,6.22c-3.99,3.47-8.53,5.94-13.46,7.79c-2.35,0.89-4.76,1.55-7.14,2.34
		c-2.3-1.95-4.22-4.27-6.3-6.43c-0.57-0.59-1.44-0.88-1.71-1.75c1.9-1.01,3.84-1.94,5.33-3.56c0.64-0.03,1.28-0.03,1.91-0.09
		c5.64-0.53,11.27-1.1,16.91-1.58c2.9-0.25,3.63-0.97,3.53-3.88C197.9,447.73,197.9,447.53,197.89,447.33z"/>
	<path fill="#312934" d="M204.86,482.1c0.06,1.29-0.18,2.54-0.51,3.78c-0.14,0.54-0.39,1.07-0.93,1.34
		c-0.38,0.18-0.78,0.19-1.13-0.08c-0.29-0.22-0.4-0.55-0.2-0.85c1.37-2,0.75-4.14,0.49-6.26c-0.09-0.71-0.09-1.43-0.09-2.15
		c0-0.47,0.02-1.05,0.62-1.14c0.61-0.09,0.77,0.49,0.94,0.92C204.6,479.08,204.91,480.56,204.86,482.1z"/>
	<path fill="#312934" d="M208.74,483.43c0.06,1.1-0.14,2.47-0.85,3.73c-0.19,0.34-0.43,0.78-0.9,0.61c-0.52-0.18-0.3-0.67-0.22-1.04
		c0.65-3.09,0.6-6.17-0.17-9.24c-0.06-0.23-0.05-0.48-0.05-0.71c0-0.32-0.01-0.69,0.38-0.78c0.41-0.09,0.68,0.18,0.85,0.51
		c0.09,0.17,0.16,0.37,0.19,0.56C208.3,479.08,208.72,481.07,208.74,483.43z"/>
	<path fill="#312934" d="M199.71,482.47c-0.03-1.58-0.21-2.76-0.61-3.9c-0.1-0.27-0.42-0.61-0.03-0.84c0.35-0.2,0.71-0.01,0.96,0.27
		c0.2,0.24,0.38,0.52,0.5,0.8c1.09,2.73,0.86,5.38-0.51,7.95c-0.17,0.32-0.34,0.84-0.86,0.6c-0.46-0.21-0.35-0.68-0.2-1.06
		C199.49,484.95,199.72,483.54,199.71,482.47z"/>
	<path fill="#312934" d="M155.68,479.7c-0.06,2.07-0.72,3.97-1.73,5.75c-0.2,0.35-0.46,0.67-0.84,0.82
		c-0.45,0.19-0.95,0.33-1.33-0.08c-0.36-0.39-0.14-0.83,0.12-1.2c1.32-1.88,2.25-3.92,2.51-6.23c0.04-0.38,0.08-0.88,0.62-0.87
		c0.59,0.01,0.6,0.54,0.64,0.97C155.7,479.14,155.68,479.42,155.68,479.7z"/>
	<path fill="#312934" d="M150.59,477.53c0.56,0.53,0.41,1.25,0.41,1.88c0,1.69-0.37,3.31-1.09,4.85c-0.29,0.62-0.66,1.18-1.27,1.54
		c-0.42,0.24-0.93,0.54-1.32,0.18c-0.51-0.46,0.05-0.87,0.3-1.23c1.35-1.97,2.28-4.09,2.61-6.46
		C150.26,478.02,150.28,477.73,150.59,477.53z"/>
	<path fill="#312934" d="M158.99,481.6c-0.08,1.07-0.14,2.06-0.46,3.01c-0.18,0.54-0.45,1.03-0.95,1.33
		c-0.37,0.22-0.8,0.51-1.2,0.15c-0.44-0.4,0.05-0.7,0.22-1.02c0.87-1.64,0.67-3.48,1.01-5.22c0.11-0.55-0.14-1.52,0.47-1.52
		c0.68-0.01,0.58,0.99,0.71,1.57C158.92,480.48,158.94,481.08,158.99,481.6z"/>
	<path fill="#F1F0EE" d="M197.89,447.33c0,0.2,0,0.4,0.01,0.6c0.09,2.91-0.63,3.63-3.53,3.88c-5.64,0.49-11.27,1.06-16.91,1.58
		c-0.63,0.06-1.27,0.06-1.91,0.09c0.41-0.94,0.88-1.84,0.84-2.94c-0.05-1.22-0.53-2.05-1.61-2.55c-2.18-1-4.52-1.5-6.81-2.14
		c-0.43-0.12-0.83-0.24-1.17-0.53c-0.27-4.02-0.92-8-1.38-12c-0.48-4.16-1.04-8.31-1.53-12.47c-0.17-1.47,0.49-2.29,1.85-2.38
		c8.96-0.58,17.92-1.16,26.89-1.71c2.36-0.14,2.98,0.39,3.18,2.8c0.35,4.18,0.62,8.36,0.93,12.53c-4.69,0.02-8.17,2.45-9.23,6.46
		c-0.93,3.54,1.11,7.02,4.62,8.01C194.01,447.1,195.97,447.09,197.89,447.33z"/>
	<path fill="#0095EF" d="M147.57,437.59c-2.5-1.49-4.95-3.01-5.87-6.06c-0.21-0.7-0.15-1,0.51-1.24c0.63-0.23,1.23-0.54,1.85-0.81
		c1.13,1.43,2.55,2.46,4.25,3.1c1.67,0.63,2.26,0.42,3.33-1.15c0.07-0.09,0.15-0.18,0.22-0.27c0,0,0,0.01,0,0.01
		c0.9-0.92,1.4-2.11,2.15-3.13c0.31-0.41,0.61-0.84,0.95-1.22c1.43-1.55,2.55-1.5,3.81,0.17c2.44,3.23,3.38,6.97,3.62,10.93
		c0.13,2.22,0.3,4.45,0.45,6.67c-1.45-0.09-2.9-0.21-4.29-0.68c-0.72-0.97-1.7-1.66-2.68-2.32
		C153.31,439.83,150.68,438.21,147.57,437.59z"/>
	<path fill="#AC4D32" d="M151.64,431.43c-1.07,1.57-1.66,1.78-3.33,1.15c-1.7-0.64-3.12-1.67-4.25-3.1
		c1.63-1.06,3.24-2.14,4.89-3.17c1.09-0.68,1.66-1.56,1.43-2.87c1.02,1.42,1.42,3.04,1.47,4.76c0.03,0.99,0,1.97,0,2.96
		c0,0,0-0.01,0-0.01C151.79,431.25,151.71,431.34,151.64,431.43z"/>
	<path fill="#0095EF" d="M214.18,434.29c-2.45,0.65-4.93,1-7.46,0.5c0.01-0.99-0.04-1.98,0.58-2.86c0.92-1.3,2.22-1.58,3.46-0.59
		C211.94,432.27,213.04,433.3,214.18,434.29z"/>
	<path fill="#909BBE" d="M147.57,437.59c3.11,0.61,5.74,2.24,8.3,3.98c0.97,0.66,1.95,1.35,2.68,2.32
		c-2.02-0.05-3.62-1.08-5.21-2.16c-1.61-1.1-3.24-2.18-4.85-3.27C148.13,438.23,147.67,438.1,147.57,437.59z"/>
	<path fill="#FEFEFE" d="M284.49,124.36c-0.01,1.91-1.54,3.39-3.5,3.39c-1.93-0.01-3.46-1.55-3.45-3.49c0.01-2,1.53-3.46,3.6-3.46
		C283.29,120.79,284.5,122.08,284.49,124.36z"/>
	<path fill="#C25D5C" d="M151.64,431.43c0.07-0.09,0.15-0.18,0.22-0.27C151.79,431.25,151.71,431.34,151.64,431.43z"/>
</g>
<g>
	<path fill="#232330" d="M152.81,273.2c4.93,0,9.13,0.46,12.59,1.37c3.46,0.92,6.29,2.21,8.48,3.87c2.19,1.67,3.78,3.69,4.78,6.08
		c1,2.38,1.49,5.05,1.49,7.99c0,1.6-0.23,3.14-0.69,4.63c-0.46,1.49-1.18,2.88-2.16,4.17c-0.98,1.29-2.24,2.47-3.77,3.55
		s-3.38,2.01-5.54,2.79c4.7,1.14,8.18,2.99,10.44,5.54s3.38,5.85,3.38,9.9c0,3.04-0.59,5.86-1.76,8.48
		c-1.18,2.61-2.9,4.89-5.17,6.83c-2.27,1.94-5.07,3.46-8.4,4.56c-3.33,1.09-7.14,1.64-11.42,1.64h-28.52V273.2H152.81z
		 M143.11,285.6v17.64h8.62c1.83,0,3.48-0.13,4.95-0.39s2.72-0.72,3.75-1.37c1.03-0.65,1.81-1.55,2.35-2.7
		c0.54-1.14,0.81-2.58,0.81-4.31c0-1.7-0.21-3.11-0.64-4.24c-0.42-1.13-1.08-2.03-1.96-2.72c-0.88-0.69-2-1.18-3.36-1.47
		s-2.96-0.44-4.83-0.44H143.11z M154.77,332.1c2.19,0,3.98-0.28,5.37-0.83s2.47-1.27,3.26-2.16s1.32-1.88,1.62-2.99
		c0.29-1.11,0.44-2.24,0.44-3.38c0-1.31-0.17-2.48-0.51-3.53c-0.34-1.05-0.93-1.93-1.76-2.65c-0.83-0.72-1.94-1.27-3.31-1.67
		c-1.37-0.39-3.1-0.59-5.19-0.59h-11.56v17.79H154.77z"/>
	<path fill="#232330" d="M262.22,308.87c0,5.16-0.89,9.96-2.67,14.41c-1.78,4.44-4.29,8.31-7.52,11.59
		c-3.23,3.28-7.13,5.86-11.69,7.72c-4.56,1.86-9.61,2.79-15.17,2.79s-10.62-0.93-15.19-2.79c-4.57-1.86-8.49-4.43-11.74-7.72
		c-3.25-3.28-5.77-7.15-7.55-11.59c-1.78-4.44-2.67-9.24-2.67-14.41c0-5.16,0.89-9.96,2.67-14.41s4.3-8.3,7.55-11.56
		c3.25-3.27,7.16-5.83,11.74-7.69c4.57-1.86,9.64-2.79,15.19-2.79s10.61,0.94,15.17,2.82c4.56,1.88,8.45,4.45,11.69,7.72
		c3.23,3.27,5.74,7.12,7.52,11.56C261.33,298.96,262.22,303.75,262.22,308.87z M245.27,308.87c0-3.53-0.46-6.7-1.37-9.53
		c-0.91-2.83-2.23-5.22-3.94-7.18s-3.81-3.46-6.3-4.51c-2.48-1.04-5.31-1.57-8.48-1.57c-3.2,0-6.05,0.52-8.55,1.57
		c-2.5,1.05-4.61,2.55-6.32,4.51s-3.03,4.35-3.94,7.18c-0.92,2.83-1.37,6-1.37,9.53c0,3.56,0.46,6.75,1.37,9.58
		c0.91,2.83,2.23,5.22,3.94,7.18s3.82,3.45,6.32,4.48c2.5,1.03,5.35,1.54,8.55,1.54c3.17,0,5.99-0.51,8.48-1.54
		c2.48-1.03,4.58-2.52,6.3-4.48s3.03-4.35,3.94-7.18C244.81,315.63,245.27,312.44,245.27,308.87z"/>
	<path fill="#232330" d="M330.73,344.6h-16.56c-1.08,0-1.95-0.26-2.62-0.78c-0.67-0.52-1.2-1.14-1.59-1.86l-14.31-24.99
		c-0.26,0.72-0.56,1.34-0.88,1.86l-13.33,23.13c-0.46,0.65-1,1.26-1.62,1.81c-0.62,0.56-1.42,0.83-2.4,0.83h-15.48l22.98-36.75
		l-22.1-34.64h16.56c1.08,0,1.87,0.14,2.38,0.42c0.51,0.28,0.96,0.74,1.35,1.4l14.21,24.06c0.16-0.42,0.35-0.83,0.56-1.22
		c0.21-0.39,0.45-0.8,0.71-1.23l12.45-21.36c0.46-0.72,0.94-1.24,1.45-1.57c0.51-0.33,1.13-0.49,1.89-0.49h15.88l-22.39,33.96
		L330.73,344.6z"/>
</g>
<g>
	<path d="M146.72,254.91c0.24,0,0.45,0.09,0.62,0.28l1.68,1.84c-1.17,1.39-2.6,2.46-4.29,3.22c-1.69,0.76-3.72,1.14-6.09,1.14
		c-2.08,0-3.96-0.36-5.65-1.08c-1.69-0.72-3.13-1.73-4.32-3.02c-1.19-1.29-2.12-2.84-2.77-4.64s-0.98-3.78-0.98-5.94
		c0-2.16,0.34-4.14,1.03-5.94c0.69-1.8,1.65-3.35,2.89-4.64c1.24-1.29,2.72-2.3,4.45-3.02s3.64-1.08,5.73-1.08
		c2.04,0,3.85,0.33,5.44,1c1.59,0.67,2.97,1.55,4.14,2.66l-1.4,1.98c-0.09,0.15-0.21,0.27-0.35,0.36c-0.14,0.09-0.32,0.14-0.55,0.14
		c-0.25,0-0.55-0.13-0.89-0.38c-0.34-0.25-0.79-0.54-1.34-0.85c-0.55-0.31-1.24-0.6-2.05-0.85c-0.81-0.25-1.83-0.38-3.04-0.38
		c-1.43,0-2.73,0.25-3.92,0.75c-1.19,0.5-2.21,1.22-3.07,2.16c-0.86,0.94-1.53,2.09-2,3.46c-0.47,1.37-0.71,2.91-0.71,4.63
		c0,1.75,0.25,3.3,0.74,4.66c0.49,1.36,1.17,2.51,2.04,3.46c0.87,0.95,1.89,1.67,3.06,2.16c1.17,0.49,2.44,0.74,3.8,0.74
		c0.83,0,1.57-0.05,2.23-0.15c0.66-0.1,1.27-0.25,1.82-0.45c0.55-0.2,1.08-0.46,1.57-0.77c0.49-0.31,0.98-0.69,1.46-1.13
		c0.11-0.09,0.22-0.17,0.34-0.23C146.46,254.94,146.59,254.91,146.72,254.91z"/>
	<path d="M179.52,246.71c0,2.15-0.34,4.12-1.03,5.91c-0.69,1.79-1.66,3.34-2.91,4.64s-2.75,2.31-4.5,3.03
		c-1.75,0.72-3.69,1.08-5.82,1.08c-2.12,0-4.06-0.36-5.81-1.08c-1.75-0.72-3.25-1.73-4.5-3.03c-1.25-1.3-2.22-2.85-2.91-4.64
		c-0.69-1.79-1.04-3.76-1.04-5.91c0-2.13,0.35-4.1,1.04-5.9s1.66-3.35,2.91-4.65c1.25-1.3,2.75-2.31,4.5-3.04
		c1.75-0.73,3.69-1.09,5.81-1.09c2.13,0,4.07,0.36,5.82,1.09c1.75,0.73,3.25,1.74,4.5,3.04c1.25,1.3,2.22,2.85,2.91,4.65
		C179.18,242.61,179.52,244.57,179.52,246.71z M175.16,246.71c0-1.71-0.23-3.24-0.7-4.6c-0.47-1.36-1.13-2.51-1.99-3.46
		c-0.86-0.95-1.9-1.67-3.12-2.18c-1.22-0.51-2.58-0.76-4.09-0.76c-1.51,0-2.87,0.25-4.09,0.76c-1.22,0.51-2.26,1.23-3.13,2.18
		c-0.87,0.95-1.53,2.1-2,3.46c-0.47,1.36-0.7,2.89-0.7,4.6c0,1.72,0.23,3.26,0.7,4.61c0.47,1.35,1.13,2.5,2,3.45
		c0.87,0.95,1.91,1.67,3.13,2.17c1.22,0.5,2.58,0.75,4.09,0.75c1.51,0,2.87-0.25,4.09-0.75c1.22-0.5,2.26-1.22,3.12-2.17
		c0.86-0.95,1.52-2.1,1.99-3.45C174.93,249.96,175.16,248.43,175.16,246.71z"/>
	<path d="M215.06,232.35v28.72h-3.72v-20.44c0-0.31,0.01-0.63,0.03-0.98s0.04-0.7,0.07-1.06l-9.56,17.54
		c-0.33,0.65-0.85,0.98-1.54,0.98h-0.6c-0.69,0-1.2-0.33-1.52-0.98l-9.74-17.6c0.08,0.75,0.12,1.45,0.12,2.1v20.44h-3.74v-28.72
		h3.16c0.37,0,0.66,0.04,0.87,0.11s0.4,0.28,0.59,0.61l9.6,17.2c0.19,0.35,0.36,0.71,0.52,1.1c0.16,0.39,0.31,0.77,0.46,1.16
		c0.28-0.79,0.61-1.55,0.98-2.28l9.42-17.18c0.17-0.33,0.36-0.54,0.57-0.61c0.21-0.07,0.5-0.11,0.87-0.11H215.06z"/>
	<path d="M252.36,232.35v28.72h-3.72v-20.44c0-0.31,0.01-0.63,0.03-0.98s0.04-0.7,0.07-1.06l-9.56,17.54
		c-0.33,0.65-0.85,0.98-1.54,0.98h-0.6c-0.69,0-1.2-0.33-1.52-0.98l-9.74-17.6c0.08,0.75,0.12,1.45,0.12,2.1v20.44h-3.74v-28.72
		h3.16c0.37,0,0.66,0.04,0.87,0.11s0.4,0.28,0.59,0.61l9.6,17.2c0.19,0.35,0.36,0.71,0.52,1.1c0.16,0.39,0.31,0.77,0.46,1.16
		c0.28-0.79,0.61-1.55,0.98-2.28l9.42-17.18c0.17-0.33,0.36-0.54,0.57-0.61c0.21-0.07,0.5-0.11,0.87-0.11H252.36z"/>
	<path d="M277.28,257.61l-0.02,3.46h-17.8v-28.72h17.8v3.46h-13.52v9.1h10.88v3.34h-10.88v9.36H277.28z"/>
	<path d="M306.06,232.35v28.72h-2.16c-0.33,0-0.61-0.06-0.83-0.18c-0.22-0.12-0.44-0.31-0.67-0.58l-16.22-20.98
		c0.03,0.36,0.05,0.71,0.07,1.06s0.03,0.67,0.03,0.98v19.7h-3.74v-28.72h2.2c0.37,0,0.65,0.04,0.84,0.13s0.39,0.28,0.62,0.59
		l16.26,21c-0.04-0.39-0.07-0.76-0.09-1.13c-0.02-0.37-0.03-0.71-0.03-1.03v-19.56H306.06z"/>
	<path d="M332.74,235.91h-9.12v25.16h-4.24v-25.16h-9.16v-3.56h22.52V235.91z"/>
</g>
</svg>
