<?xml version="1.0" encoding="utf-8"?>
<!-- Generator: Adobe Illustrator 26.5.0, SVG Export Plug-In . SVG Version: 6.00 Build 0)  -->
<svg version="1.2" baseProfile="tiny" id="Layer_1" xmlns="http://www.w3.org/2000/svg" xmlns:xlink="http://www.w3.org/1999/xlink"
	 x="0px" y="0px" viewBox="0 0 595.28 486" overflow="visible" xml:space="preserve">
<path fill="#40B3F8" d="M42,329.99c0-84.01,0-168.01,0-252.02c0.22-0.45,0.52-0.87,0.64-1.34c6.68-25.57,22.24-37.66,48.53-37.66
	c56.47,0,112.94-0.01,169.41,0.01c12.49,0,24.98,0.1,37.47,0.15c0,29.91,0.01,59.82,0.01,89.73c-48.61,0.04-97.22,0.08-145.83,0.12
	c-1.83,0-3.67-0.09-5.49,0.08c-7.06,0.66-12.76,6.21-13.64,13.17c-0.87,6.87,3.39,13.68,10.28,15.82c2.48,0.77,5.23,0.89,7.86,0.9
	c48.94,0.09,97.89,0.12,146.83,0.16c0,9.92,0,19.84,0,29.76c-48.61,0.04-97.22,0.08-145.83,0.12c-1.83,0-3.67-0.09-5.49,0.08
	c-7.06,0.66-12.76,6.21-13.64,13.17c-0.87,6.87,3.39,13.68,10.28,15.82c2.48,0.77,5.23,0.89,7.86,0.9
	c48.94,0.09,97.89,0.12,146.83,0.16c0,9.92,0,19.84,0,29.75c-9.36,1.34-14.92,6.83-15.06,14.87c-0.14,8.21,5.52,13.99,15.06,15.38
	c0,29.91-0.01,59.82-0.01,89.72c-6.82,0.05-13.66-0.15-20.46,0.28c-2.77,0.17-5.92,1.07-8.11,2.7
	c-36.99,27.53-73.87,55.22-110.74,82.92c-5.5,4.13-11.21,5.83-17.62,2.45c-6.16-3.25-8.19-8.64-8.16-15.36
	c0.12-22.31,0.04-44.63,0.04-66.94c0-1.78,0-3.57,0-5.89c-2.32,0-4.1,0-5.88,0c-13.65-0.01-27.31,0.15-40.96-0.06
	c-19.05-0.29-35.92-12.83-41.86-30.82C43.41,335.44,42.76,332.7,42,329.99z M192.87,278.99c14.33,0,28.66,0.02,42.99-0.01
	c10.24-0.02,17.04-5.95,17.12-14.87c0.08-8.93-6.76-15.11-16.86-15.12c-28.83-0.02-57.66-0.03-86.49,0
	c-9.79,0.01-16.54,6.11-16.62,14.86c-0.08,8.94,6.75,15.1,16.86,15.13C164.21,279.01,178.54,278.99,192.87,278.99z"/>
<path fill="#0096F0" d="M298.07,248.86c0-9.92,0-19.84,0-29.75l-0.11-0.22c10.14,0.03,20.28,0.14,30.41,0.07
	c8.4-0.06,14.63-6.55,14.63-14.98c0-8.44-6.23-14.92-14.63-14.97c-10.14-0.07-20.28,0.04-30.41,0.07l0.11-0.22
	c0-9.92,0-19.84,0-29.76l-0.11-0.22c50.29,0.03,100.58,0.1,150.87,0.05c8.05-0.01,14.18-6.73,14.18-14.96
	c0-8.23-6.13-14.95-14.18-14.96c-50.29-0.04-100.58,0.02-150.87,0.05l0.11-0.22c0-29.91-0.01-59.82-0.01-89.73
	c1.16-0.05,2.33-0.15,3.49-0.15c69.29-0.01,138.57-0.03,207.86,0.01c19.63,0.01,36.8,12.85,42.65,31.63
	c0.56,1.81,1.3,3.57,1.95,5.36c0,85.67,0,171.34,0,257.02c-0.4,0.65-0.98,1.25-1.16,1.96c-5.12,19.88-23.72,34.48-46.92,34.24
	c-57.79-0.6-115.6-0.19-173.4-0.21c-11.49,0-22.98-0.1-34.47-0.15c0-29.91,0.01-59.82,0.01-89.72l-0.11-0.22
	c50.29,0.03,100.58,0.1,150.87,0.05c8.05-0.01,14.18-6.73,14.18-14.96c0-8.23-6.13-14.95-14.18-14.96
	c-50.29-0.05-100.58,0.02-150.87,0.05C297.96,249.08,298.07,248.86,298.07,248.86z M417.52,218.98c9.65,0,19.29,0.03,28.94-0.01
	c9.71-0.04,16.46-6.16,16.54-14.89c0.07-8.73-6.7-15.07-16.32-15.09c-19.12-0.05-38.25-0.05-57.37,0
	c-9.59,0.03-16.37,6.41-16.28,15.12c0.09,8.54,6.77,14.78,16.07,14.85C398.56,219.04,408.04,218.98,417.52,218.98z"/>
<path fill="#E7EEFE" d="M298.06,159.1c-48.94-0.04-97.89-0.07-146.83-0.16c-2.63,0-5.38-0.13-7.86-0.9
	c-6.89-2.13-11.15-8.94-10.28-15.82c0.88-6.96,6.58-12.51,13.64-13.17c1.82-0.17,3.66-0.08,5.49-0.08
	c48.61-0.04,97.22-0.08,145.83-0.12c0,0-0.11,0.22-0.11,0.22c0,9.94,0,19.87,0,29.81L298.06,159.1z"/>
<path fill="#E7EEFE" d="M298.06,219.1c-48.94-0.04-97.89-0.07-146.83-0.16c-2.63,0-5.38-0.13-7.86-0.9
	c-6.89-2.13-11.15-8.94-10.28-15.82c0.88-6.96,6.58-12.51,13.64-13.17c1.82-0.17,3.66-0.08,5.49-0.08
	c48.61-0.04,97.22-0.08,145.83-0.12c0,0-0.11,0.22-0.11,0.22c0,9.94,0,19.88,0,29.81L298.06,219.1z"/>
<path fill="#E6EEFE" d="M192.87,278.99c-14.33,0-28.66,0.02-42.99-0.01c-10.11-0.02-16.94-6.19-16.86-15.13
	c0.08-8.74,6.83-14.85,16.62-14.86c28.83-0.03,57.66-0.03,86.49,0c10.11,0.01,16.95,6.19,16.86,15.12
	c-0.08,8.92-6.88,14.85-17.12,14.87C221.53,279.01,207.2,278.99,192.87,278.99z"/>
<path fill="#E4EDFE" d="M298.07,279.11c-9.54-1.39-15.19-7.17-15.06-15.38c0.13-8.04,5.7-13.54,15.06-14.87c0,0-0.11,0.22-0.11,0.22
	c0,9.94,0,19.88,0,29.82L298.07,279.11z"/>
<path fill="#CBDEFE" d="M297.95,158.88c0-9.94,0-19.87,0-29.81c50.29-0.03,100.58-0.1,150.87-0.05c8.05,0.01,14.18,6.72,14.18,14.96
	c0,8.23-6.13,14.96-14.18,14.96C398.53,158.98,348.24,158.91,297.95,158.88z"/>
<path fill="#CBDEFE" d="M297.96,278.89c0-9.94,0-19.88,0-29.82c50.29-0.03,100.58-0.1,150.87-0.05c8.05,0.01,14.18,6.72,14.18,14.96
	c0,8.23-6.13,14.96-14.18,14.96C398.53,278.99,348.24,278.92,297.96,278.89z"/>
<path fill="#CADEFE" d="M417.52,218.98c-9.48,0-18.96,0.05-28.44-0.02c-9.29-0.07-15.98-6.31-16.07-14.85
	c-0.09-8.72,6.69-15.1,16.28-15.12c19.12-0.05,38.25-0.05,57.37,0c9.62,0.02,16.39,6.36,16.32,15.09
	c-0.07,8.73-6.82,14.84-16.54,14.89C436.81,219.02,427.16,218.98,417.52,218.98z"/>
<path fill="#CADEFE" d="M297.95,218.89c0-9.94,0-19.88,0-29.81c10.14-0.03,20.28-0.14,30.41-0.07c8.41,0.06,14.63,6.54,14.63,14.97
	c0,8.43-6.23,14.92-14.63,14.98C318.23,219.03,308.09,218.92,297.95,218.89z"/>
</svg>
